<svg width="800" height="800" viewBox="0 0 800 800" fill="none" xmlns="http://www.w3.org/2000/svg">
<path d="M600.067 99.9H199.967C173.446 99.9792 148.035 110.552 129.285 129.308C110.535 148.064 99.9704 173.479 99.9 200V600.067C99.9967 626.573 110.571 651.966 129.318 670.706C148.064 689.446 173.46 700.012 199.967 700.1H600.067C626.567 700.003 651.955 689.433 670.694 670.694C689.433 651.955 700.003 626.567 700.1 600.067V200C700.021 173.488 689.459 148.083 670.718 129.329C651.977 110.576 626.579 99.9967 600.067 99.9ZM545.4 521.467C540.333 533.467 532.433 544.133 522.3 552.367C510.317 561.673 496.675 568.618 482.1 572.833C465.767 577.867 446.3 580.467 423.767 580.467H262.933V230.3H433.033C464.467 230.3 489.7 237.4 508.6 251.833C527.567 266.367 537.067 287.9 537.067 317.1C537.067 334.7 532.733 349.867 524.1 362.333C515.467 374.767 503.1 384.467 487.067 391.267V392.4C508.467 396.9 524.967 407 535.867 422.8C546.767 438.567 552.3 458.433 552.3 482.433C552.3 495.933 549.7 508.7 544.8 520.667L545.467 521.367V521.467H545.4ZM475.933 435.167C465.633 425.767 451.3 421.2 432.7 421.2H324.567V530.4H433C451.467 530.4 466.033 525.6 476.267 515.9C486.533 506.267 491.733 492.533 491.733 474.933C491.567 457.667 486.533 444.3 476.267 435.167H475.8H475.933ZM460.9 364.533C470.867 356.167 475.7 344.1 475.7 328.4C475.7 310.867 471.333 298.333 462.467 291.2C453.667 284.067 440.933 280.333 424.267 280.333H324.233V376.933H424.267C438.8 376.967 451.267 372.7 460.9 364.533Z" fill="url(#paint0_linear_2_2)"/>
<defs>
<linearGradient id="paint0_linear_2_2" x1="100" y1="400" x2="747.5" y2="400" gradientUnits="userSpaceOnUse">
<stop offset="0.25" stop-color="#9207FF"/>
<stop offset="1" stop-color="#632DFF"/>
</linearGradient>
</defs>
</svg>
