<svg width="800" height="800" viewBox="0 0 800 800" fill="none" xmlns="http://www.w3.org/2000/svg">
<path d="M457.275 400C457.275 407.52 455.793 414.967 452.915 421.914C450.036 428.862 445.817 435.174 440.498 440.491C435.179 445.807 428.865 450.024 421.916 452.899C414.968 455.775 407.52 457.253 400 457.25C384.816 457.25 370.255 451.218 359.518 440.482C348.782 429.745 342.75 415.184 342.75 400C342.75 384.813 348.783 370.248 359.522 359.509C370.261 348.771 384.826 342.738 400.012 342.738C415.199 342.738 429.764 348.771 440.503 359.509C451.242 370.248 457.275 384.813 457.275 400Z" fill="#263238"/>
<path d="M654.2 253.225C641.742 231.804 626.622 212.047 609.2 194.425L543.025 232.625C522.61 215.195 499.184 201.64 473.9 192.625C451.803 214.794 433.703 240.616 420.4 268.95C500.88 266.28 579.471 293.677 640.85 345.8L682.5 321.75C675.989 297.82 666.471 274.812 654.175 253.275L654.2 253.225Z" fill="#1976D2"/>
<path d="M654.225 546.725C666.546 525.232 676.097 502.267 682.65 478.375L616.45 440.15C621.369 413.714 621.412 386.601 616.575 360.15C586.327 352.096 554.915 349.33 523.725 351.975C566.347 420.361 581.954 502.176 567.5 581.45L609.15 605.5C626.597 587.89 641.742 568.141 654.225 546.725Z" fill="#42A5F5"/>
<path d="M400 693.5C424.78 693.429 449.451 690.22 473.425 683.95V607.5C498.741 598.553 522.209 585.056 542.675 567.675C534.525 537.452 521.212 508.864 503.325 483.175C465.4 554.211 402.38 608.577 326.55 635.675V683.775C350.524 690.106 375.204 693.374 400 693.5Z" fill="#1976D2"/>
<path d="M145.85 546.75C158.308 568.171 173.428 587.928 190.85 605.55L257.05 567.325C277.464 584.755 300.89 598.311 326.175 607.325C348.272 585.156 366.372 559.334 379.675 531C299.195 533.67 220.604 506.273 159.225 454.15L117.5 478.275C124.019 502.206 133.545 525.215 145.85 546.75Z" fill="#42A5F5"/>
<path d="M145.825 253.25C133.538 274.747 124.021 297.713 117.5 321.6L183.7 359.825C178.78 386.261 178.738 413.374 183.575 439.825C213.823 447.879 245.235 450.645 276.425 448C233.794 379.617 218.178 297.802 232.625 218.525L190.975 194.475C173.502 212.08 158.331 231.829 145.825 253.25Z" fill="#1976D2"/>
<path d="M400 106.475C375.22 106.546 350.549 109.755 326.575 116.025V192.5C301.259 201.447 277.791 214.944 257.325 232.325C265.475 262.548 278.788 291.136 296.675 316.825C334.6 245.789 397.62 191.423 473.45 164.325V116.2C449.476 109.869 424.796 106.601 400 106.475Z" fill="#42A5F5"/>
</svg>
